<svg width="22" height="22" viewBox="0 0 22 22" fill="none" xmlns="http://www.w3.org/2000/svg">
<path d="M18.0713 14.1413V7.85556C18.071 7.57999 17.9983 7.30934 17.8604 7.07076C17.7225 6.83218 17.5243 6.63406 17.2856 6.49627L11.7856 3.35341C11.5467 3.21549 11.2757 3.14288 10.9999 3.14288C10.7241 3.14288 10.4531 3.21549 10.2142 3.35341L4.71418 6.49627C4.47553 6.63406 4.27731 6.83218 4.1394 7.07076C4.00149 7.30934 3.92875 7.57999 3.92847 7.85556V14.1413C3.92875 14.4168 4.00149 14.6875 4.1394 14.9261C4.27731 15.1647 4.47553 15.3628 4.71418 15.5006L10.2142 18.6434C10.4531 18.7813 10.7241 18.8539 10.9999 18.8539C11.2757 18.8539 11.5467 18.7813 11.7856 18.6434L17.2856 15.5006C17.5243 15.3628 17.7225 15.1647 17.8604 14.9261C17.9983 14.6875 18.071 14.4168 18.0713 14.1413Z" stroke="#121C46" stroke-width="2" stroke-linecap="round" stroke-linejoin="round"/>
<path d="M4.14062 7.03839L10.9999 11.0062L17.8592 7.03839" stroke="#121C46" stroke-width="2" stroke-linecap="round" stroke-linejoin="round"/>
<path d="M11 18.9184V10.9984" stroke="#121C46" stroke-width="2" stroke-linecap="round" stroke-linejoin="round"/>
</svg>
