<svg width="22" height="22" viewBox="0 0 22 22" fill="none" xmlns="http://www.w3.org/2000/svg">
<path fill-rule="evenodd" clip-rule="evenodd" d="M9.71649 2.48613C10.1069 2.26126 10.5495 2.14288 11 2.14288C11.4506 2.14288 11.8932 2.26127 12.2836 2.48616L12.2857 2.48739L17.7857 5.63024C18.0979 5.81048 18.3678 6.05383 18.5788 6.34365C18.634 6.40091 18.6832 6.46572 18.7248 6.53765C18.7602 6.59884 18.7884 6.66222 18.8097 6.7268C18.9812 7.07723 19.071 7.46284 19.0714 7.85453V14.1423C19.071 14.5932 18.9519 15.0361 18.7263 15.4265C18.5006 15.8169 18.1763 16.1411 17.7857 16.3666L17.7819 16.3688L12.2857 19.5094L12.2835 19.5107C12.022 19.6614 11.7371 19.7642 11.442 19.8157C11.3087 19.8815 11.1587 19.9184 11 19.9184C10.8413 19.9184 10.6913 19.8815 10.558 19.8157C10.263 19.7642 9.97806 19.6614 9.71659 19.5108L9.7143 19.5094L4.21816 16.3688L4.2143 16.3666C3.82378 16.1411 3.49942 15.8169 3.27375 15.4265C3.04809 15.0361 2.92905 14.5932 2.92859 14.1423V7.85453C2.92899 7.46313 3.01872 7.0778 3.18998 6.72758C3.21125 6.66273 3.23952 6.59909 3.27506 6.53765C3.3168 6.46549 3.36618 6.4005 3.42158 6.34312C3.63253 6.05353 3.9023 5.81038 4.2143 5.63025L4.21816 5.62802L9.71649 2.48613ZM12 17.3692L16.7857 14.6345L16.7873 14.6336C16.8734 14.5836 16.9449 14.5119 16.9947 14.4256C17.0448 14.339 17.0712 14.2409 17.0714 14.1409L17.0714 8.64934L12 11.583V17.3692ZM10 11.5831V17.3692L5.2143 14.6345L5.21278 14.6336C5.12668 14.5836 5.05515 14.5119 5.00529 14.4256C4.95521 14.339 4.92876 14.2407 4.92859 14.1406V8.64942L10 11.5831ZM11.2857 4.21945L16.0394 6.93583L11 9.85097L5.96058 6.93587L10.7104 4.22167L10.7143 4.21944C10.8012 4.16929 10.8997 4.14288 11 4.14288C11.1003 4.14288 11.1989 4.1693 11.2857 4.21945Z" fill="#121C46"/>
</svg>
