<svg width="22" height="22" viewBox="0 0 22 22" fill="none" xmlns="http://www.w3.org/2000/svg">
<mask id="path-1-outside-1_1207_1863" maskUnits="userSpaceOnUse" x="2" y="2" width="18" height="18" fill="black">
<rect fill="white" x="2" y="2" width="18" height="18"/>
<path fill-rule="evenodd" clip-rule="evenodd" d="M14 7V4H8L8 7H4V18H18V7H14Z"/>
</mask>
<path d="M14 4H16C16 2.89543 15.1046 2 14 2V4ZM14 7H12C12 8.10457 12.8954 9 14 9V7ZM8 4V2C6.89543 2 6 2.89543 6 4L8 4ZM8 7V9C9.10457 9 10 8.10457 10 7L8 7ZM4 7V5C2.89543 5 2 5.89543 2 7H4ZM4 18H2C2 19.1046 2.89543 20 4 20V18ZM18 18V20C19.1046 20 20 19.1046 20 18H18ZM18 7H20C20 5.89543 19.1046 5 18 5V7ZM12 4V7H16V4H12ZM8 6H14V2H8V6ZM10 7L10 4L6 4L6 7L10 7ZM4 9H8V5H4V9ZM6 18V7H2V18H6ZM18 16H4V20H18V16ZM16 7V18H20V7H16ZM14 9H18V5H14V9Z" fill="#121C46" mask="url(#path-1-outside-1_1207_1863)"/>
<path d="M7.56348 13.585L7.56787 11.9546H7.76562L9.33447 10.0869H10.8989L8.78955 12.561H8.45996L7.56348 13.585ZM6.33301 15V8.45215H7.69092V15H6.33301ZM9.396 15L7.95459 12.8643L8.85986 11.8975L10.9912 15H9.396ZM13.2676 16.9424C12.6055 16.9424 12.0869 16.8105 11.7119 16.5469C11.3369 16.2861 11.1084 15.9609 11.0264 15.5713L12.2832 15.4043C12.3213 15.5039 12.3813 15.5962 12.4634 15.6812C12.5454 15.7661 12.6553 15.8335 12.793 15.8833C12.9307 15.936 13.0991 15.9624 13.2983 15.9624C13.5942 15.9624 13.8389 15.8906 14.0322 15.7471C14.2256 15.6064 14.3223 15.3677 14.3223 15.0308V14.1299H14.2651C14.2065 14.2646 14.1172 14.3936 13.9971 14.5166C13.877 14.6396 13.7231 14.7393 13.5356 14.8154C13.3481 14.8916 13.124 14.9297 12.8633 14.9297C12.4941 14.9297 12.1587 14.8447 11.8569 14.6748C11.5581 14.502 11.3179 14.2383 11.1362 13.8838C10.9575 13.5293 10.8682 13.0811 10.8682 12.5391C10.8682 11.9795 10.959 11.5137 11.1406 11.1416C11.3252 10.7695 11.5684 10.4912 11.8701 10.3066C12.1719 10.1191 12.5029 10.0254 12.8633 10.0254C13.1387 10.0254 13.3687 10.0723 13.5532 10.166C13.7407 10.2568 13.8931 10.3711 14.0103 10.5088C14.1274 10.6465 14.2153 10.7827 14.2739 10.9175H14.3267V10.0869H15.667V15.0527C15.667 15.4688 15.5645 15.8174 15.3594 16.0986C15.1543 16.3799 14.8716 16.5908 14.5112 16.7314C14.1509 16.8721 13.7363 16.9424 13.2676 16.9424ZM13.2939 13.9058C13.6221 13.9058 13.8755 13.7842 14.0542 13.541C14.2358 13.2979 14.3267 12.9609 14.3267 12.5303C14.3267 12.2432 14.2856 11.9941 14.2036 11.7832C14.1245 11.5693 14.0088 11.4038 13.8564 11.2866C13.7041 11.1665 13.5166 11.1064 13.2939 11.1064C13.0713 11.1064 12.8823 11.168 12.7271 11.291C12.5747 11.4111 12.459 11.5781 12.3799 11.792C12.3008 12.0059 12.2612 12.252 12.2612 12.5303C12.2612 12.8115 12.3008 13.0562 12.3799 13.2642C12.459 13.4692 12.5747 13.6274 12.7271 13.7388C12.8823 13.8501 13.0713 13.9058 13.2939 13.9058Z" fill="#121C46"/>
</svg>
