<svg width="64" height="64" viewBox="0 0 64 64" fill="none" xmlns="http://www.w3.org/2000/svg">
<path d="M35.4853 34.1421C33.9232 35.7042 31.3905 35.7042 29.8284 34.1421C28.2663 32.58 28.2663 30.0474 29.8284 28.4853C32.6569 25.6569 41.1421 22.8284 41.1421 22.8284C41.1421 22.8284 38.3137 31.3137 35.4853 34.1421Z" fill="#18BBFE"/>
<path fill-rule="evenodd" clip-rule="evenodd" d="M29 9.19388C17.7149 10.6639 9 20.3142 9 32C9 44.7025 19.2975 55 32 55C43.6858 55 53.3361 46.2851 54.8061 35H45.6778C44.3045 41.2904 38.7022 46 32 46C24.268 46 18 39.732 18 32C18 25.2978 22.7096 19.6955 29 18.3222V9.19388ZM50.181 17.911C52.8182 21.3092 54.5238 25.4667 54.9142 30H45.8582C45.5637 27.9412 44.8213 26.0269 43.7329 24.359L50.181 17.911ZM46.706 14.3149C43.1996 11.396 38.8115 9.50021 34 9.08575V18.1418C36.3346 18.4757 38.4834 19.3856 40.2979 20.723L46.706 14.3149Z" fill="#18BBFE"/>
</svg>
