<svg width="22" height="22" viewBox="0 0 22 22" fill="none" xmlns="http://www.w3.org/2000/svg">
<path fill-rule="evenodd" clip-rule="evenodd" d="M4 6H18C18.5523 6 19 6.44771 19 7V15C19 15.5523 18.5523 16 18 16H4C3.44772 16 3 15.5523 3 15V7C3 6.44772 3.44772 6 4 6ZM1 7C1 5.34315 2.34315 4 4 4H18C19.6569 4 21 5.34315 21 7V15C21 16.6569 19.6569 18 18 18H4C2.34315 18 1 16.6569 1 15V7ZM6 8C5.44772 8 5 8.44772 5 9V13C5 13.5523 5.44772 14 6 14C6.55228 14 7 13.5523 7 13V9C7 8.44772 6.55228 8 6 8ZM10 9C10 8.44772 10.4477 8 11 8C11.5523 8 12 8.44772 12 9V13C12 13.5523 11.5523 14 11 14C10.4477 14 10 13.5523 10 13V9ZM16 8C15.4477 8 15 8.44772 15 9V13C15 13.5523 15.4477 14 16 14C16.5523 14 17 13.5523 17 13V9C17 8.44772 16.5523 8 16 8Z" fill="#121C46"/>
</svg>
