<svg width="64" height="64" viewBox="0 0 64 64" fill="none" xmlns="http://www.w3.org/2000/svg">
<rect x="4" y="50" width="54" height="2" fill="#18BBFE"/>
<path fill-rule="evenodd" clip-rule="evenodd" d="M58 36.6363C54.7902 40.5229 49.9344 43 44.5 43C34.835 43 27 35.165 27 25.5C27 22.4152 27.7982 19.5167 29.1993 17H4V48H58V36.6363ZM8 21H12V44H8V21ZM20 21H16V44H20V21Z" fill="#18BBFE"/>
<path fill-rule="evenodd" clip-rule="evenodd" d="M44.5 41C53.0604 41 60 34.0604 60 25.5C60 16.9396 53.0604 10 44.5 10C35.9396 10 29 16.9396 29 25.5C29 34.0604 35.9396 41 44.5 41ZM43.5364 31.7804L53.5364 19.7804L50.4636 17.2196L41.8656 27.5372L38.9142 24.5858L36.0858 27.4142L40.5858 31.9142L42.1344 33.4628L43.5364 31.7804Z" fill="#18BBFE"/>
</svg>
