<svg width="64" height="64" viewBox="0 0 64 64" fill="none" xmlns="http://www.w3.org/2000/svg">
<path fill-rule="evenodd" clip-rule="evenodd" d="M27 52C27 52 45 40 45 23C45 13.0589 36.9411 5 27 5C17.0589 5 9 13.0589 9 23C9 40 27 52 27 52ZM27 31C31.4183 31 35 27.4183 35 23C35 18.5817 31.4183 15 27 15C22.5817 15 19 18.5817 19 23C19 27.4183 22.5817 31 27 31Z" fill="#18BBFE"/>
<path fill-rule="evenodd" clip-rule="evenodd" d="M12.056 38.6843L7 50H21.882C18.8649 47.3479 15.0622 43.4758 12.056 38.6843ZM32.118 50H51.5L57.5 26.5H46.6931C45.0733 36.993 37.3943 45.362 32.118 50Z" fill="#18BBFE"/>
</svg>
